<svg width="120" height="36" viewBox="0 0 120 36" fill="none" xmlns="http://www.w3.org/2000/svg">
<path d="M72.5479 10.918C78.1934 10.918 83.1475 14.72 83.1475 21.1338C83.1475 27.5476 78.1934 31.3496 72.5479 31.3496C66.9023 31.3496 61.9482 27.5476 61.9482 21.1338C61.9482 14.72 66.9023 10.918 72.5479 10.918ZM113.033 4.63965C114.308 4.58697 116.119 5.44698 116.551 6.72656C116.856 7.63189 116.483 8.68655 115.761 9.3125C115.039 9.93821 114.028 10.1675 113.078 10.0674C112.128 9.96724 111.231 9.56366 110.423 9.05371C110.022 8.80069 109.628 8.51509 109.169 8.39648C108.032 8.10159 107.294 9.45805 106.717 10.2461C105.341 12.1291 104.393 14.3275 103.557 16.4912C103.513 16.6045 103.468 16.7194 103.426 16.834L100.738 23.9385C99.3559 27.548 99.3174 29.1229 99.7773 30.0059C100.046 30.5435 100.008 30.7363 99.4316 30.7363H90.1387C89.5628 30.7363 89.5242 30.5053 89.793 30.0059L89.792 30.0049C90.2532 29.0837 90.0989 27.4323 88.793 23.7832L86.7969 18.1758C85.8362 15.4494 85.0311 14.9115 84.2246 13.7217C83.1493 12.1851 83.2256 11.5322 85.1074 11.5322H92.25C94.362 11.5323 94.3624 12.6079 94.1318 14.0664C93.9012 15.3342 94.4007 16.6393 94.9766 18.3301L97.626 26.0879C97.8566 26.818 98.3562 26.818 98.625 26.0879C98.6325 26.0674 102.02 16.7802 102.044 16.7188C103.425 12.9327 105.19 8.6286 108.561 6.1748C109.82 5.2576 111.479 4.70422 113.033 4.63965ZM50.8496 10.9189C57.7234 10.9189 58.6846 16.3341 58.6846 18.8301V23.9766C58.6846 25.7041 59.0298 27.3948 59.5674 28.6611C60.2592 30.2359 60.2973 30.7354 58.5684 30.7354H51.1191C49.3915 30.7354 49.4296 30.2359 50.1201 28.6611C50.6577 27.3935 51.0029 25.7041 51.0029 23.9766V18.0615C51.0029 14.4906 50.0423 13.1085 48.2002 13.1084C46.242 13.1084 45.0903 15.1426 44.5908 17.2549C44.5144 17.6002 44.4756 17.8315 44.4756 18.1768V23.9746C44.4756 25.7023 44.8207 27.3937 45.3584 28.6602C46.0501 30.2347 46.0883 30.7344 44.3594 30.7344H36.9102C35.1827 30.7344 35.2208 30.2346 35.9111 28.6602V28.6611C36.4488 27.3935 36.7939 25.7041 36.7939 23.9766V16.5264C36.7939 16.45 36.7559 16.2962 36.7178 16.2197L35.5273 14.376C35.2203 13.9147 35.4516 13.3384 35.9893 13.1855L43.3623 11.0732C43.9381 10.9191 44.4755 11.3039 44.4756 11.918V12.8389C44.4756 13.5306 44.821 13.6457 45.3203 13.1465C46.4338 11.917 48.2393 10.9191 50.8496 10.9189ZM116.175 11.1094C116.751 10.9553 117.288 11.3402 117.288 11.9541V23.9746C117.288 25.7021 117.633 27.3928 118.171 28.6592C118.863 30.2338 118.901 30.7333 117.173 30.7334H109.723C107.995 30.7334 108.033 30.2339 108.724 28.6592C109.261 27.3915 109.606 25.7022 109.606 23.9746V16.5625C109.606 16.486 109.568 16.3322 109.53 16.2559L108.341 14.4121C108.034 13.9509 108.264 13.3745 108.802 13.2217L116.175 11.1094ZM75.1582 19.9053C73.0458 15.2589 70.7038 12.4165 68.8984 13.3008C67.0935 14.1076 67.7469 17.7553 69.9355 22.3633C72.0478 27.0095 74.3518 29.8523 76.1953 28.9688C78.0389 28.1622 77.3471 24.5137 75.1582 19.9053Z" fill="#351C0C"/>
<path fill-rule="evenodd" clip-rule="evenodd" d="M23.633 28.3084C26.4178 25.3589 31.2499 15.7198 28.8795 11.8509C25.1745 5.7888 8.08403 25.4448 10.8743 32.854C11.9834 35.7965 16.8084 33.981 18.4295 32.872C19.8902 31.8677 20.521 31.4415 21.0892 30.9437C21.6965 30.4116 22.2321 29.7976 23.633 28.3084ZM16.8576 1.48047C19.6728 1.48047 21.9456 3.75327 21.9456 6.56851C21.9456 9.37751 19.6666 11.6503 16.8576 11.6503C14.0486 11.6503 11.7758 9.38376 11.7758 6.56851C11.7758 3.75327 14.0423 1.48047 16.8576 1.48047ZM11.5374 30.149L11.539 30.1501C11.6273 30.2105 11.7186 30.2729 11.8132 30.3377C13.5373 31.5201 18.68 33.4573 19.8625 30.3252C20.8252 27.7544 19.548 23.8036 17.2534 19.8657C16.9918 19.4174 16.717 18.9692 16.4308 18.5233C13.5858 22.0933 11.259 26.2539 10.6982 29.5736C10.9439 29.7431 11.2208 29.9325 11.5374 30.149Z" fill="#351C0C"/>
<path fill-rule="evenodd" clip-rule="evenodd" d="M6.2686 25.4815C3.30116 22.3368 -1.84776 12.0702 0.674794 7.9453C3.19169 3.82761 11.5044 10.8473 16.4308 18.5233C13.5858 22.0933 11.259 26.2539 10.6982 29.5736C8.98321 28.3912 8.78836 28.1821 7.23598 26.516C6.96133 26.2213 6.64418 25.8809 6.2686 25.4815ZM19.8625 30.3252C20.8278 27.7554 19.5512 23.8044 17.2534 19.8657C19.548 23.8036 20.8252 27.7544 19.8625 30.3252Z" fill="#351C0C"/>
<path fill-rule="evenodd" clip-rule="evenodd" d="M11.4702 30.1031C11.1814 29.9055 10.9263 29.731 10.6982 29.5736L10.6979 29.5751C10.9238 29.7301 11.1791 29.9045 11.4702 30.1031ZM16.4308 18.5233C16.7168 18.9695 16.992 19.4171 17.2534 19.8657C16.9918 19.4174 16.717 18.9692 16.4308 18.5233C16.431 18.523 16.4306 18.5235 16.4308 18.5233Z" fill="#351C0C"/>
</svg>
